<svg width="299" height="351" viewBox="0 0 299 351" fill="none" xmlns="http://www.w3.org/2000/svg">
<path d="M196.875 121.469H224.282H240.453" stroke="#41AC48" stroke-width="4" stroke-linecap="round" stroke-linejoin="round"/>
<path d="M269.93 124.839C284.433 131.138 294.613 145.607 294.613 162.323V306.234C294.613 328.704 276.228 347.088 253.758 347.088H44.2764C21.8064 347.088 3.42188 328.704 3.42188 306.234V162.323C3.42188 139.853 21.8064 121.469 44.2764 121.469H101.2" stroke="#41AC48" stroke-width="4" stroke-linecap="round" stroke-linejoin="round"/>
<path d="M73.7969 121.523L96.9137 156.114C103.246 165.646 116.252 168.234 125.75 161.867L131.3 158.156L149.037 146.309" stroke="#41AC48" stroke-width="4" stroke-linecap="round" stroke-linejoin="round"/>
<path d="M224.277 121.469L203.305 152.859" stroke="#41AC48" stroke-width="4" stroke-linecap="round" stroke-linejoin="round"/>
<path d="M168.377 159.195L149.039 146.258" stroke="#41AC48" stroke-width="4" stroke-linecap="round" stroke-linejoin="round"/>
<path d="M96.9062 156.094L128.024 202.77L149.03 234.296L154.886 225.478" stroke="#41AC48" stroke-width="4" stroke-linecap="round" stroke-linejoin="round"/>
<path d="M131.305 158.148L141.348 179.291H148.838" stroke="#41AC48" stroke-width="4" stroke-linecap="round" stroke-linejoin="round"/>
<path d="M150.852 179.289H148.844" stroke="#41AC48" stroke-width="4" stroke-linecap="round" stroke-linejoin="round"/>
<path d="M166.372 158.148L164.602 161.893" stroke="#41AC48" stroke-width="4" stroke-linecap="round" stroke-linejoin="round"/>
<path d="M141.343 179.289L128.031 202.814" stroke="#41AC48" stroke-width="4" stroke-linecap="round" stroke-linejoin="round"/>
<path d="M193.461 347.142V346.461" stroke="#41AC48" stroke-width="4" stroke-miterlimit="10"/>
<path d="M162.579 273.766H99.8672" stroke="#41AC48" stroke-width="4" stroke-linecap="round" stroke-linejoin="round"/>
<path d="M99.9192 273.732C83.5434 273.732 70.2656 260.454 70.2656 244.078" stroke="#41AC48" stroke-width="4" stroke-linecap="round" stroke-linejoin="round"/>
<path d="M201.506 347.098C227.454 347.098 248.489 326.063 248.489 300.116C248.489 274.168 227.454 253.133 201.506 253.133C175.558 253.133 154.523 274.168 154.523 300.116C154.523 326.063 175.558 347.098 201.506 347.098Z" stroke="#41AC48" stroke-width="4" stroke-linecap="round" stroke-linejoin="round"/>
<path d="M93.2891 69.6995C93.2891 69.6995 126.96 78.8237 148.817 49.9531C148.817 49.9531 174.283 64.1841 199.817 57.9879" stroke="#41AC48" stroke-width="4" stroke-linecap="round" stroke-linejoin="round"/>
<path d="M196.384 58.6685C203.091 57.4769 209.73 55.6384 211.807 49.1698C213.884 42.6671 210.275 35.7559 203.806 33.6791C200.64 32.6578 197.372 33.0323 194.58 34.3941C193.354 30.8533 190.562 27.8573 186.681 26.6317C180.179 24.5549 173.642 27.1424 171.565 33.6451C164.62 30.7512 157.028 29.1511 149.027 29.1511C122.982 29.1511 100.887 46.1738 93.2945 69.6992C91.4561 75.3848 90.4688 81.4109 90.4688 87.7093C90.4688 100.306 94.4521 111.95 101.193 121.482C111.781 136.496 129.281 146.267 149.027 146.267C168.773 146.267 186.273 136.496 196.861 121.482C203.602 111.95 207.585 100.306 207.585 87.7093C207.585 76.8828 204.623 66.7032 199.482 58.0216C199.482 57.9876 199.448 57.9195 199.414 57.8854" stroke="#41AC48" stroke-width="4" stroke-linecap="round" stroke-linejoin="round"/>
<path d="M136.162 87.7541C139.566 87.7541 142.324 84.9952 142.324 81.5919C142.324 78.1886 139.566 75.4297 136.162 75.4297C132.759 75.4297 130 78.1886 130 81.5919C130 84.9952 132.759 87.7541 136.162 87.7541Z" fill="#41AC48"/>
<path d="M171.193 87.7541C174.597 87.7541 177.356 84.9952 177.356 81.5919C177.356 78.1886 174.597 75.4297 171.193 75.4297C167.79 75.4297 165.031 78.1886 165.031 81.5919C165.031 84.9952 167.79 87.7541 171.193 87.7541Z" fill="#41AC48"/>
<path d="M152.883 101.609H166.365L159.624 86.3906" stroke="#41AC48" stroke-width="4" stroke-linecap="round" stroke-linejoin="round"/>
<path d="M174.468 114.102C174.468 123.43 166.91 130.988 157.582 130.988C148.253 130.988 140.695 123.43 140.695 114.102H174.468Z" stroke="#41AC48" stroke-width="4" stroke-linecap="round" stroke-linejoin="round"/>
<path d="M254.933 248.612L238.523 212.422" stroke="#41AC48" stroke-width="4" stroke-miterlimit="10"/>
<path d="M254.914 248.648C261.689 263.56 279.257 270.199 294.168 263.424" stroke="#41AC48" stroke-width="4" stroke-miterlimit="10"/>
<path d="M193.561 245.825C219.509 245.825 240.544 224.79 240.544 198.842C240.544 172.894 219.509 151.859 193.561 151.859C167.613 151.859 146.578 172.894 146.578 198.842C146.578 224.79 167.613 245.825 193.561 245.825Z" stroke="#41AC48" stroke-width="4" stroke-miterlimit="10"/>
<path d="M179.637 258.525L171.398 240.276V240.242" stroke="#41AC48" stroke-width="4" stroke-miterlimit="10"/>
<path d="M80.4235 71.0243C80.4235 77.595 60.3367 76.3013 56.0129 80.591C51.6891 84.8808 52.9829 105.002 46.4461 105.002C39.9094 105.002 41.1691 84.9148 36.8794 80.591C32.5896 76.2673 12.4688 77.561 12.4688 71.0243C12.4688 64.4875 32.5556 65.7472 36.8794 61.4575C41.2031 57.1677 39.9094 37.0469 46.4461 37.0469C52.9829 37.0469 51.7232 57.1337 56.0129 61.4575C60.3026 65.7813 80.4235 64.4875 80.4235 71.0243Z" stroke="#41AC48" stroke-width="4" stroke-miterlimit="10"/>
<path d="M268.211 29.5899C268.211 34.5606 252.993 33.6073 249.724 36.8416C246.456 40.0759 247.443 55.3283 242.473 55.3283C237.502 55.3283 238.455 40.11 235.221 36.8416C231.987 33.5733 216.734 34.5606 216.734 29.5899C216.734 24.6193 231.953 25.5726 235.221 22.3383C238.489 19.1039 237.502 3.85156 242.473 3.85156C247.443 3.85156 246.49 19.0699 249.724 22.3383C252.959 25.6066 268.211 24.6193 268.211 29.5899Z" stroke="#41AC48" stroke-width="4" stroke-miterlimit="10"/>
<path d="M39.8212 171.314C45.0296 171.314 49.2518 167.092 49.2518 161.884C49.2518 156.675 45.0296 152.453 39.8212 152.453C34.6128 152.453 30.3906 156.675 30.3906 161.884C30.3906 167.092 34.6128 171.314 39.8212 171.314Z" stroke="#41AC48" stroke-width="4" stroke-miterlimit="10"/>
<path d="M254.944 140.302C263.236 140.302 269.958 133.58 269.958 125.287C269.958 116.995 263.236 110.273 254.944 110.273C246.652 110.273 239.93 116.995 239.93 125.287C239.93 133.58 246.652 140.302 254.944 140.302Z" stroke="#41AC48" stroke-width="4" stroke-miterlimit="10"/>
<path d="M73.79 40.5643C78.9983 40.5643 83.2206 36.3421 83.2206 31.1337C83.2206 25.9253 78.9983 21.7031 73.79 21.7031C68.5816 21.7031 64.3594 25.9253 64.3594 31.1337C64.3594 36.3421 68.5816 40.5643 73.79 40.5643Z" stroke="#41AC48" stroke-width="4" stroke-miterlimit="10"/>
</svg>
