<svg width="299" height="329" viewBox="0 0 299 329" fill="none" xmlns="http://www.w3.org/2000/svg">
<path d="M74.2578 249.891H113.989" stroke="#E60028" stroke-width="4" stroke-linecap="round" stroke-linejoin="round"/>
<path d="M231.517 249.891H191.82" stroke="#E60028" stroke-width="4" stroke-linecap="round" stroke-linejoin="round"/>
<path d="M74.2552 249.911C57.8793 249.911 44.6016 236.634 44.6016 220.258" stroke="#E60028" stroke-width="4" stroke-linecap="round" stroke-linejoin="round"/>
<path d="M231.508 249.911C247.884 249.911 261.161 236.634 261.161 220.258" stroke="#E60028" stroke-width="4" stroke-linecap="round" stroke-linejoin="round"/>
<path d="M152.866 323.262C178.813 323.262 199.848 302.227 199.848 276.28C199.848 250.332 178.813 229.297 152.866 229.297C126.918 229.297 105.883 250.332 105.883 276.28C105.883 302.227 126.918 323.262 152.866 323.262Z" stroke="#E60028" stroke-width="4" stroke-linecap="round" stroke-linejoin="round"/>
<path d="M101.193 99.4688H44.2686C21.7986 99.4688 3.41406 117.853 3.41406 140.323V284.234C3.41406 306.704 21.7986 325.088 44.2686 325.088H253.75C276.22 325.088 294.605 306.704 294.605 284.234V140.323C294.605 117.853 276.22 99.4688 253.75 99.4688H196.86" stroke="#E60028" stroke-width="4" stroke-linecap="round" stroke-linejoin="round"/>
<path d="M73.8047 99.4688L96.9216 134.059C103.254 143.592 116.259 146.179 125.758 139.813L131.307 136.102L149.045 124.254" stroke="#E60028" stroke-width="4" stroke-linecap="round" stroke-linejoin="round"/>
<path d="M149.047 124.254L172.3 139.813C181.833 146.179 194.804 143.592 201.17 134.059L224.287 99.4688" stroke="#E60028" stroke-width="4" stroke-linecap="round" stroke-linejoin="round"/>
<path d="M201.161 134.07L149.038 212.273L96.9141 134.07" stroke="#E60028" stroke-width="4" stroke-linecap="round" stroke-linejoin="round"/>
<path d="M131.305 136.117L141.348 157.259H148.838" stroke="#E60028" stroke-width="4" stroke-linecap="round" stroke-linejoin="round"/>
<path d="M166.369 136.117L156.326 157.259H148.836" stroke="#E60028" stroke-width="4" stroke-linecap="round" stroke-linejoin="round"/>
<path d="M141.343 157.273L128.031 180.765" stroke="#E60028" stroke-width="4" stroke-linecap="round" stroke-linejoin="round"/>
<path d="M156.305 157.273L169.616 180.765" stroke="#E60028" stroke-width="4" stroke-linecap="round" stroke-linejoin="round"/>
<path d="M193.461 325.087V324.406" stroke="#E60028" stroke-width="4" stroke-linecap="round" stroke-linejoin="round"/>
<path d="M93.2891 47.6682C93.2891 47.6682 126.96 56.7924 148.817 27.9219C148.817 27.9219 174.283 42.1529 199.817 35.9566" stroke="#E60028" stroke-width="4" stroke-linecap="round" stroke-linejoin="round"/>
<path d="M196.384 36.6451C203.091 35.4535 209.73 33.615 211.807 27.1464C213.884 20.6437 210.275 13.7325 203.806 11.6557C200.64 10.6343 197.372 11.0088 194.58 12.3706C193.354 8.8299 190.562 5.8339 186.681 4.60827C180.179 2.53149 173.642 5.11895 171.565 11.6216C164.62 8.72777 157.028 7.12763 149.027 7.12763C122.982 7.12763 100.887 24.1504 93.2945 47.6758C91.4561 53.3614 90.4688 59.3874 90.4688 65.6858C90.4688 78.2827 94.4521 89.9262 101.193 99.4589C111.781 114.473 129.281 124.244 149.027 124.244C168.773 124.244 186.273 114.473 196.861 99.4589C203.602 89.9262 207.585 78.2827 207.585 65.6858C207.585 54.8594 204.623 44.6798 199.482 35.9982C199.482 35.9641 199.482 35.8961 199.414 35.862" stroke="#E60028" stroke-width="4" stroke-linecap="round" stroke-linejoin="round"/>
<path d="M132.967 67.301C136.37 67.301 139.129 64.5421 139.129 61.1388C139.129 57.7355 136.37 54.9766 132.967 54.9766C129.564 54.9766 126.805 57.7355 126.805 61.1388C126.805 64.5421 129.564 67.301 132.967 67.301Z" fill="#E60028"/>
<path d="M174.701 65.7229C178.105 65.7229 180.864 62.964 180.864 59.5607C180.864 56.1574 178.105 53.3984 174.701 53.3984C171.298 53.3984 168.539 56.1574 168.539 59.5607C168.539 62.964 171.298 65.7229 174.701 65.7229Z" fill="#E60028"/>
<path d="M152.852 79.5777H166.368L159.627 64.3594" stroke="#E60028" stroke-width="4" stroke-linecap="round" stroke-linejoin="round"/>
<path d="M143.781 99.0603C150.216 92.6257 160.668 92.6257 167.102 99.0603" stroke="#E60028" stroke-width="4" stroke-linecap="round" stroke-linejoin="round"/>
<path d="M141.342 85.4531C141.342 91.6154 136.337 96.62 130.175 96.62C124.012 96.62 119.008 91.6154 119.008 85.4531C119.008 80.7549 125.476 74.4564 128.575 71.6988C129.494 70.8817 130.89 70.8817 131.809 71.6988C134.907 74.4564 141.376 80.7889 141.376 85.4531H141.342Z" stroke="#E60028" stroke-width="4" stroke-linecap="round" stroke-linejoin="round"/>
</svg>
