<svg width="249" height="216" viewBox="0 0 249 216" fill="none" xmlns="http://www.w3.org/2000/svg">
<g clip-path="url(#clip0_286_304)">
<path d="M148.211 158.338V170.822C148.211 189.905 132.372 205.527 113.022 205.527H69.9942C50.6445 205.527 34.8047 189.905 34.8047 170.822V158.338C34.8047 139.255 50.6445 123.633 69.9942 123.633" stroke="#6C89EF" stroke-width="4" stroke-linecap="round" stroke-linejoin="round"/>
<path d="M106.766 158.338C106.766 139.255 122.605 123.633 141.955 123.633C151.63 123.633 160.432 127.543 166.815 133.802C173.18 140.098 177.127 148.779 177.127 158.321V170.804C177.127 174.786 176.417 178.642 175.162 182.229" stroke="#6C89EF" stroke-width="4" stroke-linecap="round" stroke-linejoin="round"/>
<path d="M74.5435 163.016L68.7422 178.62" stroke="#6C89EF" stroke-width="4" stroke-linecap="round" stroke-linejoin="round"/>
<path d="M68.7394 178.625C66.6298 184.329 60.2284 187.252 54.4453 185.154" stroke="#6C89EF" stroke-width="4" stroke-linecap="round" stroke-linejoin="round"/>
<path d="M86.4728 168.433C94.5781 168.433 101.149 161.952 101.149 153.959C101.149 145.965 94.5781 139.484 86.4728 139.484C78.3675 139.484 71.7969 145.965 71.7969 153.959C71.7969 161.952 78.3675 168.433 86.4728 168.433Z" stroke="#6C89EF" stroke-width="4" stroke-linecap="round" stroke-linejoin="round"/>
<path d="M97.1808 136.779C115.631 136.779 130.588 122.027 130.588 103.831C130.588 85.6341 115.631 70.8828 97.1808 70.8828C78.7304 70.8828 63.7734 85.6341 63.7734 103.831C63.7734 122.027 78.7304 136.779 97.1808 136.779Z" stroke="#6C89EF" stroke-width="4" stroke-linecap="round" stroke-linejoin="round"/>
<path d="M87.8316 110.915C94.8623 110.915 100.562 105.294 100.562 98.3597C100.562 91.4258 94.8623 85.8047 87.8316 85.8047C80.801 85.8047 75.1016 91.4258 75.1016 98.3597C75.1016 105.294 80.801 110.915 87.8316 110.915Z" stroke="#6C89EF" stroke-width="4" stroke-linecap="round" stroke-linejoin="round"/>
<path d="M113.347 110.915C120.378 110.915 126.077 105.294 126.077 98.3597C126.077 91.4258 120.378 85.8047 113.347 85.8047C106.317 85.8047 100.617 91.4258 100.617 98.3597C100.617 105.294 106.317 110.915 113.347 110.915Z" stroke="#6C89EF" stroke-width="4" stroke-linecap="round" stroke-linejoin="round"/>
<path d="M87.7442 103.095C89.6827 103.095 91.2541 101.545 91.2541 99.6335C91.2541 97.7217 89.6827 96.1719 87.7442 96.1719C85.8058 96.1719 84.2344 97.7217 84.2344 99.6335C84.2344 101.545 85.8058 103.095 87.7442 103.095Z" fill="#6C89EF"/>
<path d="M107.729 103.095C109.667 103.095 111.238 101.545 111.238 99.6335C111.238 97.7217 109.667 96.1719 107.729 96.1719C105.79 96.1719 104.219 97.7217 104.219 99.6335C104.219 101.545 105.79 103.095 107.729 103.095Z" fill="#6C89EF"/>
<path d="M97.2734 110.899H104.984L101.129 102.344" stroke="#6C89EF" stroke-width="4" stroke-linecap="round" stroke-linejoin="round"/>
<path d="M92.0938 119.936C95.7673 116.313 101.732 116.313 105.406 119.936" stroke="#6C89EF" stroke-width="4" stroke-linecap="round" stroke-linejoin="round"/>
<path d="M91.2537 112.438L82.9609 120.024" stroke="#6C89EF" stroke-width="4" stroke-linecap="round" stroke-linejoin="round"/>
<path d="M110.875 112.438L119.168 120.024" stroke="#6C89EF" stroke-width="4" stroke-linecap="round" stroke-linejoin="round"/>
<path d="M145.887 183.229C147.324 182.601 148.942 182.242 150.615 182.242H178.112C184.586 182.242 189.897 187.479 189.897 193.865C189.897 197.075 188.569 199.999 186.441 202.097C184.295 204.213 181.367 205.505 178.112 205.505H150.615C149.524 205.505 148.469 205.361 147.487 205.074C142.686 203.765 139.067 199.496 138.867 194.385" stroke="#6C89EF" stroke-width="4" stroke-linecap="round" stroke-linejoin="round"/>
<path d="M154.086 125.767C157.869 124.386 161.96 123.633 166.216 123.633C175.891 123.633 184.693 127.543 191.076 133.802C197.441 140.098 201.387 148.779 201.387 158.321V170.804C201.387 174.786 200.678 178.642 199.423 182.229" stroke="#6C89EF" stroke-width="4" stroke-linecap="round" stroke-linejoin="round"/>
<path d="M174.852 182.242H202.349C208.823 182.242 214.133 187.479 214.133 193.865C214.133 197.075 212.805 199.999 210.678 202.097C208.532 204.213 205.604 205.505 202.349 205.505H174.852" stroke="#6C89EF" stroke-width="4" stroke-linecap="round" stroke-linejoin="round"/>
<path d="M58.1953 91.1328H69.616" stroke="#6C89EF" stroke-width="4" stroke-linecap="round" stroke-linejoin="round"/>
<path d="M58.1953 97.0469H69.616" stroke="#6C89EF" stroke-width="4" stroke-linecap="round" stroke-linejoin="round"/>
<path d="M98.7491 161.867L93.9844 188.591" stroke="#6C89EF" stroke-width="4" stroke-linecap="round" stroke-linejoin="round"/>
<path d="M215.336 114.969V214.207H32.8047V114.969" stroke="#6C89EF" stroke-width="4" stroke-linecap="round" stroke-linejoin="round"/>
<path d="M238.434 135.343C236.433 135.343 234.433 134.554 232.905 132.993L124.063 21.2L15.2572 132.993C12.202 136.132 7.23726 136.132 4.18204 132.993C1.12682 129.855 1.12682 124.761 4.18204 121.622L118.534 4.14313C121.59 1.00437 126.554 1.00437 129.61 4.14313L243.962 121.622C247.017 124.761 247.017 129.855 243.962 132.993C242.434 134.572 240.434 135.343 238.434 135.343Z" stroke="#6C89EF" stroke-width="4" stroke-linecap="round" stroke-linejoin="round"/>
</g>
<defs>
<clipPath id="clip0_286_304">
<rect width="248" height="216" fill="white" transform="translate(0.0703125)"/>
</clipPath>
</defs>
</svg>
