<svg width="249" height="292" viewBox="0 0 249 292" fill="none" xmlns="http://www.w3.org/2000/svg">
<g clip-path="url(#clip0_290_973)">
<path d="M156.738 161.074C154.37 161.835 151.827 162.245 149.255 162.245C135.252 162.245 123.969 150.89 123.969 136.931C123.969 122.972 135.252 111.617 149.255 111.617C156.533 111.617 163.081 114.719 167.642 119.665" stroke="#6C89EF" stroke-width="4" stroke-linecap="round" stroke-linejoin="round"/>
<path d="M145.602 80.2109V91.2436" stroke="#6C89EF" stroke-width="4" stroke-linecap="round" stroke-linejoin="round"/>
<path d="M115.842 165.164L108.125 172.89" stroke="#6C89EF" stroke-width="4" stroke-linecap="round" stroke-linejoin="round"/>
<path d="M189.659 85.7436V143.863C200.212 149.95 203.807 163.441 197.727 174.005C191.647 184.569 178.171 188.169 167.618 182.082C157.065 175.995 153.47 162.504 159.55 151.94C161.479 148.574 164.256 145.794 167.618 143.863V85.7436C167.618 79.6566 172.558 74.7109 178.638 74.7109C184.719 74.7109 189.659 79.6566 189.659 85.7436Z" stroke="#6C89EF" stroke-width="4" stroke-linecap="round" stroke-linejoin="round"/>
<path d="M101.521 135.375H90.5" stroke="#6C89EF" stroke-width="4" stroke-linecap="round" stroke-linejoin="round"/>
<path d="M114.409 104.152L106.633 96.3672" stroke="#6C89EF" stroke-width="4" stroke-linecap="round" stroke-linejoin="round"/>
<path d="M246.369 289.34H85.3576C83.3406 289.34 81.3821 289.194 79.4527 288.872C60.3641 285.858 45.7188 268.387 45.7188 247.258C45.7188 226.129 60.3641 208.687 79.4527 205.673C81.3821 205.351 83.3406 205.205 85.3576 205.205H246.369V53.8203H89.8594" stroke="#6C89EF" stroke-width="4" stroke-linecap="round" stroke-linejoin="round"/>
<path d="M235.32 205.203V289.338" stroke="#6C89EF" stroke-width="4" stroke-linecap="round" stroke-linejoin="round"/>
<path d="M45.6875 244.364V95.9062" stroke="#6C89EF" stroke-width="4" stroke-linecap="round" stroke-linejoin="round"/>
<path d="M79.4219 205.672V288.9" stroke="#6C89EF" stroke-width="4" stroke-linecap="round" stroke-linejoin="round"/>
<path d="M79.4219 225.25H235.317" stroke="#6C89EF" stroke-width="4" stroke-linecap="round" stroke-linejoin="round"/>
<path d="M79.4219 247.289H235.317" stroke="#6C89EF" stroke-width="4" stroke-linecap="round" stroke-linejoin="round"/>
<path d="M79.4219 269.297H235.317" stroke="#6C89EF" stroke-width="4" stroke-linecap="round" stroke-linejoin="round"/>
<path d="M105.269 80.8319L63.8176 8.19772C60.982 3.22277 54.6679 1.46691 49.6984 4.27629C48.0614 5.21275 46.7167 6.55891 45.7813 8.19772L4.33001 80.8319C1.46525 85.8069 3.16072 92.128 8.1302 94.9959C9.73797 95.9323 11.5504 96.4006 13.392 96.3713H96.3238C102.053 96.3713 106.672 91.7183 106.672 85.9824C106.672 84.1681 106.204 82.3829 105.269 80.8027" stroke="#6C89EF" stroke-width="4" stroke-linecap="round" stroke-linejoin="round"/>
<path d="M54.8438 34.125V54.8734" stroke="#6C89EF" stroke-width="9" stroke-linecap="round" stroke-linejoin="round"/>
<path d="M54.8438 75.625H54.902" stroke="#6C89EF" stroke-width="11" stroke-linecap="round" stroke-linejoin="round"/>
</g>
<defs>
<clipPath id="clip0_290_973">
<rect width="249" height="292" fill="white"/>
</clipPath>
</defs>
</svg>
