<svg width="273" height="268" viewBox="0 0 273 268" fill="none" xmlns="http://www.w3.org/2000/svg">
<g clip-path="url(#clip0_286_425)">
<path d="M204.285 119.67V25.6321V2.23438H2.3125V25.6321V132.421V155.841V196.171H110.176" stroke="#6C89EF" stroke-width="4" stroke-linecap="round" stroke-linejoin="round"/>
<path d="M125.652 93.344H111.83C110.351 93.344 109.164 92.1585 109.164 90.6822V76.8806C109.164 75.4043 107.977 74.2188 106.498 74.2188H100.069C98.5906 74.2188 97.4034 75.4043 97.4034 76.8806V90.6822C97.4034 92.1585 96.2161 93.344 94.7376 93.344H80.9158C79.4373 93.344 78.25 94.5296 78.25 96.0059V102.426C78.25 103.902 79.4373 105.088 80.9158 105.088H94.7376C96.2161 105.088 97.4034 106.273 97.4034 107.75V121.551C97.4034 123.027 98.5906 124.213 100.069 124.213H106.498C107.977 124.213 109.164 123.027 109.164 121.551V107.75C109.164 106.273 110.351 105.088 111.83 105.088H125.652C127.13 105.088 128.318 103.902 128.318 102.426V96.0059C128.318 94.5296 127.13 93.344 125.652 93.344Z" fill="#6C89EF"/>
<path d="M204.285 2.23438H2.3125V25.6545H204.285V2.23438Z" stroke="#6C89EF" stroke-width="4" stroke-linecap="round" stroke-linejoin="round"/>
<path d="M159.972 38.4062H141.109V60.9092H159.972V38.4062Z" stroke="#6C89EF" stroke-width="4" stroke-linecap="round" stroke-linejoin="round"/>
<path d="M191.065 38.4062H172.203V60.9092H191.065V38.4062Z" stroke="#6C89EF" stroke-width="4" stroke-linecap="round" stroke-linejoin="round"/>
<path d="M191.065 71.7344H172.203V94.2373H191.065V71.7344Z" stroke="#6C89EF" stroke-width="4" stroke-linecap="round" stroke-linejoin="round"/>
<path d="M159.972 71.7344H141.109V94.2373H159.972V71.7344Z" stroke="#6C89EF" stroke-width="4" stroke-linecap="round" stroke-linejoin="round"/>
<path d="M45.6769 60.9062H64.5391V38.4033H45.6769V60.9062Z" stroke="#6C89EF" stroke-width="4" stroke-linecap="round" stroke-linejoin="round"/>
<path d="M14.5832 60.9062H33.4453V38.4033H14.5832L14.5832 60.9062Z" stroke="#6C89EF" stroke-width="4" stroke-linecap="round" stroke-linejoin="round"/>
<path d="M14.5832 94.2422H33.4453V71.7392H14.5832L14.5832 94.2422Z" stroke="#6C89EF" stroke-width="4" stroke-linecap="round" stroke-linejoin="round"/>
<path d="M45.6769 94.2422H64.5391V71.7392H45.6769V94.2422Z" stroke="#6C89EF" stroke-width="4" stroke-linecap="round" stroke-linejoin="round"/>
<path d="M128.348 155.844H103.303H62.7109V196.04H103.303H110.628" stroke="#6C89EF" stroke-width="4" stroke-linecap="round" stroke-linejoin="round"/>
<path d="M136.095 132.422H2.3125V155.842H62.7072H103.299H128.344" stroke="#6C89EF" stroke-width="4" stroke-linecap="round" stroke-linejoin="round"/>
<path d="M170.797 132.422H166.07" stroke="#6C89EF" stroke-width="4" stroke-linecap="round" stroke-linejoin="round"/>
<path d="M184.752 186.74C185.939 189.491 186.589 192.533 186.589 195.732V196.179C186.342 208.594 176.194 218.593 163.694 218.593C151.194 218.593 140.957 208.527 140.777 196.045M145.459 181.886C149.648 176.383 156.257 172.849 163.694 172.849C164.433 172.849 165.173 172.894 165.889 172.938M204.286 148.556C198.461 146.655 192.256 145.648 185.804 145.648C173.372 145.648 161.812 149.406 152.225 155.849C149.85 157.459 147.587 159.226 145.459 161.15C135.558 170.097 128.658 182.288 126.44 196.045C125.925 199.199 125.656 202.42 125.656 205.709C125.656 238.859 152.583 265.769 185.804 265.769C219.026 265.769 245.953 238.859 245.953 205.709C245.953 178.978 228.457 156.318 204.286 148.556Z" stroke="#6C89EF" stroke-width="4" stroke-miterlimit="10"/>
<path d="M140.773 196.042V195.729C140.773 190.517 142.498 185.73 145.455 181.883" stroke="#6C89EF" stroke-width="4" stroke-miterlimit="10"/>
<path d="M165.891 172.938C174.381 173.765 181.527 179.201 184.753 186.739" stroke="#6C89EF" stroke-width="4" stroke-miterlimit="10"/>
<path d="M214.901 218.61C227.558 218.61 237.818 208.365 237.818 195.727C237.818 183.089 227.558 172.844 214.901 172.844C202.245 172.844 191.984 183.089 191.984 195.727C191.984 208.365 202.245 218.61 214.901 218.61Z" stroke="#6C89EF" stroke-width="4" stroke-miterlimit="10"/>
<path d="M204.802 204.366C208.291 204.366 211.119 201.542 211.119 198.058C211.119 194.574 208.291 191.75 204.802 191.75C201.313 191.75 198.484 194.574 198.484 198.058C198.484 201.542 201.313 204.366 204.802 204.366Z" fill="#6C89EF"/>
<path d="M185.961 218.612H199.85L192.905 202.977" stroke="#6C89EF" stroke-width="4" stroke-linecap="round" stroke-linejoin="round"/>
<path d="M176.664 235.074C183.273 228.475 194.003 228.475 200.611 235.074" stroke="#6C89EF" stroke-width="4" stroke-linecap="round" stroke-linejoin="round"/>
<path d="M175.137 221.406L160.195 235.208" stroke="#6C89EF" stroke-width="4" stroke-linecap="round" stroke-linejoin="round"/>
<path d="M210.445 221.406L225.387 235.208" stroke="#6C89EF" stroke-width="4" stroke-linecap="round" stroke-linejoin="round"/>
<path d="M246.757 218.209C249.96 222.906 257.061 224.002 262.035 221.229C267.03 218.455 269.808 212.617 269.83 206.913C269.83 201.231 267.456 195.728 264.096 191.143C260.735 186.535 256.457 182.71 252.223 178.907C257.913 179.936 263.849 176.513 266.672 171.48C269.494 166.425 269.494 160.14 267.613 154.682C264.745 146.316 257.487 139.583 248.93 137.346C238.715 134.662 228.007 138.106 218.016 141.506C218.038 132.447 212.258 123.857 204.283 119.674C201.506 118.198 198.459 117.259 195.3 117.035C184.996 116.274 174.78 123.03 170.793 132.425C170.031 134.169 169.494 136.004 169.225 137.905C168.553 135.869 167.455 134.035 166.066 132.425C162.437 128.175 156.725 125.625 151.057 125.781C145.457 125.915 140.125 128.465 136.093 132.425C134.502 133.946 133.136 135.69 132.016 137.592C128.812 143.05 127.715 149.537 128.342 155.845C128.476 157.321 128.723 158.797 129.059 160.229C120.569 159.58 111.989 165.262 109.323 173.337C106.657 181.412 110.152 191.098 117.365 195.616C115.125 195.191 112.795 195.37 110.622 196.041C110.466 196.064 110.331 196.108 110.174 196.176C105.716 197.63 101.886 201.119 100.385 205.548C98.0775 212.326 101.438 220.513 107.822 223.756C114.207 226.977 122.809 224.83 126.908 218.969" stroke="#6C89EF" stroke-width="4" stroke-linecap="round" stroke-linejoin="round"/>
<path d="M175.142 198.058C175.142 201.525 172.32 204.366 168.825 204.366C165.33 204.366 162.508 201.525 162.508 198.058C162.508 197.409 162.597 196.761 162.799 196.179C163.583 193.607 165.98 191.75 168.825 191.75C171.67 191.75 174.067 193.607 174.851 196.179C175.053 196.761 175.142 197.409 175.142 198.058Z" fill="#6C89EF"/>
</g>
<defs>
<clipPath id="clip0_286_425">
<rect width="272" height="268" fill="white" transform="translate(0.0703125)"/>
</clipPath>
</defs>
</svg>
