<svg width="201" height="264" viewBox="0 0 201 264" fill="none" xmlns="http://www.w3.org/2000/svg">
<g clip-path="url(#clip0_285_148)">
<path d="M2.92188 166.546V213.09C2.92188 240.124 46.8113 262.023 100.93 262.023C155.048 262.023 198.937 240.124 198.937 213.09V164.156" stroke="#6C89EF" stroke-width="4" stroke-linecap="round" stroke-linejoin="round"/>
<path d="M106.778 115.305C158.2 116.805 198.957 138.113 198.957 164.159C198.957 190.206 155.088 213.093 100.949 213.093C46.8113 213.093 2.92188 191.193 2.92188 164.159C2.92188 137.125 43.6791 116.825 95.1015 115.324" stroke="#6C89EF" stroke-width="4" stroke-linecap="round" stroke-linejoin="round"/>
<path d="M129.174 133.27C122.157 132.066 114.624 131.296 106.773 131.039" stroke="#6C89EF" stroke-width="4" stroke-linecap="round" stroke-linejoin="round"/>
<path d="M143.254 136.45C163.97 142.394 177.629 152.583 177.629 164.155C177.629 182.5 143.294 197.37 100.951 197.37C58.6079 197.37 24.2734 182.5 24.2734 164.155C24.2734 145.81 55.4956 132.323 95.103 131.039" stroke="#6C89EF" stroke-width="4" stroke-linecap="round" stroke-linejoin="round"/>
<path d="M66.8546 101.287C66.8546 105.275 63.6035 108.514 59.5992 108.514C55.5948 108.514 52.3438 105.275 52.3438 101.287C52.3438 98.2455 56.5463 94.1578 58.5485 92.3608C59.1432 91.8276 60.0551 91.8276 60.6498 92.3608C62.6718 94.1578 66.8744 98.2455 66.8744 101.287H66.8546Z" stroke="#6C89EF" stroke-width="4" stroke-linecap="round" stroke-linejoin="round"/>
<path d="M143.526 134.435C143.526 138.424 140.275 141.662 136.271 141.662C132.267 141.662 129.016 138.424 129.016 134.435C129.016 131.394 133.218 127.306 135.22 125.509C135.815 124.976 136.727 124.976 137.322 125.509C139.344 127.306 143.546 131.394 143.546 134.435H143.526Z" stroke="#6C89EF" stroke-width="4" stroke-linecap="round" stroke-linejoin="round"/>
<path d="M76.6437 47.2553C76.6437 51.2442 73.3926 54.4828 69.3882 54.4828C65.3839 54.4828 62.1328 51.2442 62.1328 47.2553C62.1328 44.2142 66.3354 40.1266 68.3376 38.3296C68.9323 37.7964 69.8442 37.7964 70.4389 38.3296C72.4609 40.1266 76.6635 44.2142 76.6635 47.2553H76.6437Z" stroke="#6C89EF" stroke-width="4" stroke-linecap="round" stroke-linejoin="round"/>
<path d="M95.1016 160.785V131.045V115.327V106.539" stroke="#6C89EF" stroke-width="4" stroke-linecap="round" stroke-linejoin="round"/>
<path d="M106.773 106.539V115.307V131.045V160.824" stroke="#6C89EF" stroke-width="4" stroke-linecap="round" stroke-linejoin="round"/>
<path d="M52.6953 155.391C58.7217 155.391 58.7217 166.923 64.748 166.923C70.7744 166.923 70.7744 155.391 76.8008 155.391C82.8271 155.391 82.8271 166.923 88.8535 166.923C94.8799 166.923 94.8799 155.391 100.906 155.391C106.933 155.391 106.933 166.923 112.959 166.923C118.985 166.923 118.985 155.391 125.032 155.391C131.078 155.391 131.058 166.923 137.104 166.923C143.15 166.923 143.13 155.391 149.177 155.391" stroke="#6C89EF" stroke-width="4" stroke-linecap="round" stroke-linejoin="round"/>
<path d="M95.1016 20.0847V5.70878C95.1016 3.65507 96.7866 1.97656 98.8482 1.97656H103.031C105.093 1.97656 106.778 3.65507 106.778 5.70878V20.0847" stroke="#6C89EF" stroke-width="4" stroke-linecap="round" stroke-linejoin="round"/>
<path d="M95.1016 62.5796V49.5859" stroke="#6C89EF" stroke-width="4" stroke-linecap="round" stroke-linejoin="round"/>
<path d="M106.773 62.5796V49.5859" stroke="#6C89EF" stroke-width="4" stroke-linecap="round" stroke-linejoin="round"/>
<path d="M126.379 29.8594C124.238 39.654 116.566 47.3751 106.773 49.5868C104.91 50.041 102.947 50.2582 100.945 50.2582C98.9429 50.2582 96.9804 50.0212 95.0971 49.5868C85.3241 47.3554 77.6524 39.6342 75.5312 29.8594" stroke="#6C89EF" stroke-width="4" stroke-linecap="round" stroke-linejoin="round"/>
<path d="M129.353 20.0859H72.5191C70.7784 20.0859 69.3672 21.4917 69.3672 23.2257V26.721C69.3672 28.4551 70.7784 29.8608 72.5191 29.8608H129.353C131.094 29.8608 132.505 28.4551 132.505 26.721V23.2257C132.505 21.4917 131.094 20.0859 129.353 20.0859Z" stroke="#6C89EF" stroke-width="4" stroke-linecap="round" stroke-linejoin="round"/>
<path d="M138.357 76.9531C135.027 92.2572 122.479 104.145 106.778 106.534C104.875 106.811 102.933 106.969 100.95 106.969C98.968 106.969 97.0054 106.811 95.1024 106.534C79.4021 104.125 66.8538 92.2572 63.5234 76.9531" stroke="#6C89EF" stroke-width="4" stroke-linecap="round" stroke-linejoin="round"/>
<path d="M142.755 62.5781H59.1387C56.5768 62.5781 54.5 64.6469 54.5 67.199V72.353C54.5 74.905 56.5768 76.9738 59.1387 76.9738H142.755C145.316 76.9738 147.393 74.905 147.393 72.353V67.199C147.393 64.6469 145.316 62.5781 142.755 62.5781Z" stroke="#6C89EF" stroke-width="4" stroke-linecap="round" stroke-linejoin="round"/>
</g>
<defs>
<clipPath id="clip0_285_148">
<rect width="200" height="264" fill="white" transform="translate(0.9375)"/>
</clipPath>
</defs>
</svg>
