<svg width="263" height="252" viewBox="0 0 263 252" fill="none" xmlns="http://www.w3.org/2000/svg">
<g clip-path="url(#clip0_286_812)">
<path d="M178.932 88.3672H219.571C235.603 88.3672 248.72 101.502 248.72 117.556V220.375C248.72 236.429 235.603 249.564 219.571 249.564H70.1098C54.0779 249.564 40.9609 236.429 40.9609 220.375V117.556C40.9609 101.502 54.0779 88.3672 70.1098 88.3672H110.748" stroke="#6C89EF" stroke-width="4" stroke-miterlimit="10"/>
<path d="M88.7422 197.125H117.089" stroke="#6C89EF" stroke-width="4" stroke-miterlimit="10"/>
<path d="M200.924 197.125H172.625" stroke="#6C89EF" stroke-width="4" stroke-miterlimit="10"/>
<path d="M88.7432 197.124C77.0593 197.124 67.5859 187.637 67.5859 175.938" stroke="#6C89EF" stroke-width="4" stroke-miterlimit="10"/>
<path d="M200.922 197.124C212.606 197.124 222.079 187.637 222.079 175.938" stroke="#6C89EF" stroke-width="4" stroke-miterlimit="10"/>
<path d="M144.834 249.534C163.347 249.534 178.355 234.505 178.355 215.966C178.355 197.427 163.347 182.398 144.834 182.398C126.32 182.398 111.312 197.427 111.312 215.966C111.312 234.505 126.32 249.534 144.834 249.534Z" stroke="#6C89EF" stroke-width="4" stroke-miterlimit="10"/>
<path d="M120.589 192.792L109.148 88.3672" stroke="#6C89EF" stroke-width="4" stroke-miterlimit="10"/>
<path d="M180.559 88.3672L169.094 192.792" stroke="#6C89EF" stroke-width="4" stroke-miterlimit="10"/>
<path d="M144.835 106.066C167.909 106.066 186.615 87.3349 186.615 64.2285C186.615 41.1221 167.909 22.3906 144.835 22.3906C121.76 22.3906 103.055 41.1221 103.055 64.2285C103.055 87.3349 121.76 106.066 144.835 106.066Z" stroke="#6C89EF" stroke-width="4" stroke-miterlimit="10"/>
<path d="M129.496 73.2164C138.283 73.2164 145.407 66.0832 145.407 57.284C145.407 48.4848 138.283 41.3516 129.496 41.3516C120.709 41.3516 113.586 48.4848 113.586 57.284C113.586 66.0832 120.709 73.2164 129.496 73.2164Z" stroke="#6C89EF" stroke-width="4" stroke-miterlimit="10"/>
<path d="M165.059 73.2164C173.846 73.2164 180.969 66.0832 180.969 57.284C180.969 48.4848 173.846 41.3516 165.059 41.3516C156.272 41.3516 149.148 48.4848 149.148 57.284C149.148 66.0832 156.272 73.2164 165.059 73.2164Z" stroke="#6C89EF" stroke-width="4" stroke-miterlimit="10"/>
<path d="M135.442 58.8871C135.442 60.2167 134.366 61.2898 133.045 61.2898C131.724 61.2898 130.648 60.2167 130.648 58.8871C130.648 57.5575 131.724 56.4844 133.045 56.4844C134.366 56.4844 135.442 57.5575 135.442 58.8871Z" stroke="#6C89EF" stroke-width="4"/>
<path d="M160.457 58.8871C160.457 60.2167 159.382 61.2898 158.061 61.2898C156.74 61.2898 155.664 60.2167 155.664 58.8871C155.664 57.5575 156.74 56.4844 158.061 56.4844C159.382 56.4844 160.457 57.5575 160.457 58.8871Z" stroke="#6C89EF" stroke-width="4"/>
<path d="M144.953 73.2098H154.597L149.763 62.3125" stroke="#6C89EF" stroke-width="4" stroke-linecap="round" stroke-linejoin="round"/>
<path d="M138.5 84.6745C143.091 80.0772 150.548 80.0772 155.139 84.6745" stroke="#6C89EF" stroke-width="4" stroke-linecap="round" stroke-linejoin="round"/>
<path d="M137.427 75.1641L127.055 84.7722" stroke="#6C89EF" stroke-width="4" stroke-linecap="round" stroke-linejoin="round"/>
<path d="M161.953 75.1641L172.325 84.7722" stroke="#6C89EF" stroke-width="4" stroke-linecap="round" stroke-linejoin="round"/>
<path d="M103.957 73.4638C101.115 77.5502 95.1394 79.034 90.6942 76.7962C86.249 74.5583 83.9414 68.8421 85.5203 64.1232C87.0992 59.4043 92.4188 56.2908 97.3256 57.1908C92.3217 54.0529 89.8926 47.3151 91.7387 41.6719C93.5848 36.0286 99.5603 32.0881 105.439 32.5502C104.224 27.2475 104.759 21.4584 107.479 16.7881C110.2 12.1178 115.276 8.68808 120.693 8.54213C126.11 8.39619 131.6 11.8502 133.324 16.9827C134.563 8.54213 142.944 1.82862 151.445 2.43673C159.947 3.04484 167.234 10.9746 167.21 19.4881C174.157 17.1043 181.59 14.7205 188.683 16.5935C194.634 18.1502 199.662 22.8448 201.654 28.6584C202.966 32.4529 202.966 36.8556 200.998 40.3584C199.031 43.8611 194.902 46.2448 190.966 45.5394C193.906 48.1908 196.893 50.8421 199.225 54.0529C201.557 57.2638 203.233 61.0827 203.209 65.0475C203.185 69.0124 201.266 73.0746 197.792 75.0205C194.319 76.9665 189.412 76.1881 187.177 72.9286" stroke="#6C89EF" stroke-width="4" stroke-linecap="round" stroke-linejoin="round"/>
<path d="M230.811 13.3594C230.811 21.1675 225.953 21.1675 225.953 28.9756C225.953 36.7837 230.811 36.7837 230.811 44.6161C230.811 52.4486 225.953 52.4486 225.953 60.2567C225.953 68.0648 230.811 68.0891 230.811 75.8972" stroke="#6C89EF" stroke-width="4" stroke-linecap="round" stroke-linejoin="round"/>
<path d="M245.671 13.3594C245.671 21.1675 240.812 21.1675 240.812 28.9756C240.812 36.7837 245.671 36.7837 245.671 44.6161C245.671 52.4486 240.812 52.4486 240.812 60.2567C240.812 68.0648 245.671 68.0891 245.671 75.8972" stroke="#6C89EF" stroke-width="4" stroke-linecap="round" stroke-linejoin="round"/>
<path d="M260.507 13.3594C260.507 21.1675 255.648 21.1675 255.648 28.9756C255.648 36.7837 260.507 36.7837 260.507 44.6161C260.507 52.4486 255.648 52.4486 255.648 60.2567C255.648 68.0648 260.507 68.0891 260.507 75.8972" stroke="#6C89EF" stroke-width="4" stroke-linecap="round" stroke-linejoin="round"/>
<path d="M8.22534 115.539C8.22534 123.347 3.36719 123.347 3.36719 131.155C3.36719 138.963 8.22534 138.963 8.22534 146.796C8.22534 154.628 3.36719 154.628 3.36719 162.436C3.36719 170.244 8.22534 170.269 8.22534 178.077" stroke="#6C89EF" stroke-width="4" stroke-linecap="round" stroke-linejoin="round"/>
<path d="M23.0613 115.539C23.0613 123.347 18.2031 123.347 18.2031 131.155C18.2031 138.963 23.0613 138.963 23.0613 146.796C23.0613 154.628 18.2031 154.628 18.2031 162.436C18.2031 170.244 23.0613 170.269 23.0613 178.077" stroke="#6C89EF" stroke-width="4" stroke-linecap="round" stroke-linejoin="round"/>
</g>
<defs>
<clipPath id="clip0_286_812">
<rect width="262" height="252" fill="white" transform="translate(0.9375)"/>
</clipPath>
</defs>
</svg>
