<svg width="268" height="244" viewBox="0 0 268 244" fill="none" xmlns="http://www.w3.org/2000/svg">
<g clip-path="url(#clip0_281_661)">
<path d="M186.079 52.2801L167.9 63.4288L176.067 83.1225L154.787 81.4419L149.84 102.201L133.602 88.33L117.388 102.201L112.417 81.4419L91.1612 83.1225L99.3275 63.4288L81.125 52.2801L99.3275 41.1314L91.1612 21.4377L112.417 23.1182L117.388 2.35938L133.602 16.2302L149.84 2.35938L154.787 23.1182L176.067 21.4377L167.9 41.1314L186.079 52.2801Z" stroke="#6C89EF" stroke-width="4" stroke-linecap="round" stroke-linejoin="round"/>
<path d="M133.605 78.8271C148.273 78.8271 160.163 66.9367 160.163 52.269C160.163 37.6014 148.273 25.7109 133.605 25.7109C118.937 25.7109 107.047 37.6014 107.047 52.269C107.047 66.9367 118.937 78.8271 133.605 78.8271Z" stroke="#6C89EF" stroke-width="4" stroke-linecap="round" stroke-linejoin="round"/>
<path d="M81.6779 65.2422H2.42969V241.633H81.6779V65.2422Z" stroke="#6C89EF" stroke-width="4" stroke-linecap="round" stroke-linejoin="round"/>
<path d="M29.9114 79.5312H15.0938V93.8755H29.9114V79.5312Z" fill="#6C89EF"/>
<path d="M49.4582 79.5312H34.6406V93.8755H49.4582V79.5312Z" fill="#6C89EF"/>
<path d="M69.0207 79.5312H54.2031V93.8755H69.0207V79.5312Z" fill="#6C89EF"/>
<path d="M29.9114 98.6172H15.0938V112.961H29.9114V98.6172Z" fill="#6C89EF"/>
<path d="M49.4582 98.6172H34.6406V112.961H49.4582V98.6172Z" fill="#6C89EF"/>
<path d="M69.0207 98.6172H54.2031V112.961H69.0207V98.6172Z" fill="#6C89EF"/>
<path d="M29.9114 117.656H15.0938V132H29.9114V117.656Z" fill="#6C89EF"/>
<path d="M49.4582 117.656H34.6406V132H49.4582V117.656Z" fill="#6C89EF"/>
<path d="M69.0207 117.656H54.2031V132H69.0207V117.656Z" fill="#6C89EF"/>
<path d="M29.9114 136.75H15.0938V151.094H29.9114V136.75Z" fill="#6C89EF"/>
<path d="M49.4582 136.75H34.6406V151.094H49.4582V136.75Z" fill="#6C89EF"/>
<path d="M69.0207 136.75H54.2031V151.094H69.0207V136.75Z" fill="#6C89EF"/>
<path d="M29.9114 155.789H15.0938V170.133H29.9114V155.789Z" fill="#6C89EF"/>
<path d="M49.4582 155.789H34.6406V170.133H49.4582V155.789Z" fill="#6C89EF"/>
<path d="M69.0207 155.789H54.2031V170.133H69.0207V155.789Z" fill="#6C89EF"/>
<path d="M29.9114 174.883H15.0938V189.227H29.9114V174.883Z" fill="#6C89EF"/>
<path d="M49.4582 174.883H34.6406V189.227H49.4582V174.883Z" fill="#6C89EF"/>
<path d="M69.0207 174.883H54.2031V189.227H69.0207V174.883Z" fill="#6C89EF"/>
<path d="M29.9114 193.93H15.0938V208.274H29.9114V193.93Z" fill="#6C89EF"/>
<path d="M49.4582 193.93H34.6406V208.274H49.4582V193.93Z" fill="#6C89EF"/>
<path d="M69.0207 193.93H54.2031V208.274H69.0207V193.93Z" fill="#6C89EF"/>
<path d="M29.9114 213.008H15.0938V227.352H29.9114V213.008Z" fill="#6C89EF"/>
<path d="M49.4582 213.008H34.6406V227.352H49.4582V213.008Z" fill="#6C89EF"/>
<path d="M69.0207 213.008H54.2031V227.352H69.0207V213.008Z" fill="#6C89EF"/>
<path d="M264.779 65.2422H185.531V241.633H264.779V65.2422Z" stroke="#6C89EF" stroke-width="4" stroke-linecap="round" stroke-linejoin="round"/>
<path d="M213.021 79.5312H198.203V93.8755H213.021V79.5312Z" fill="#6C89EF"/>
<path d="M232.568 79.5312H217.75V93.8755H232.568V79.5312Z" fill="#6C89EF"/>
<path d="M252.13 79.5312H237.312V93.8755H252.13V79.5312Z" fill="#6C89EF"/>
<path d="M213.021 98.6172H198.203V112.961H213.021V98.6172Z" fill="#6C89EF"/>
<path d="M232.568 98.6172H217.75V112.961H232.568V98.6172Z" fill="#6C89EF"/>
<path d="M252.13 98.6172H237.312V112.961H252.13V98.6172Z" fill="#6C89EF"/>
<path d="M213.021 117.656H198.203V132H213.021V117.656Z" fill="#6C89EF"/>
<path d="M232.568 117.656H217.75V132H232.568V117.656Z" fill="#6C89EF"/>
<path d="M252.13 117.656H237.312V132H252.13V117.656Z" fill="#6C89EF"/>
<path d="M213.021 136.75H198.203V151.094H213.021V136.75Z" fill="#6C89EF"/>
<path d="M232.568 136.75H217.75V151.094H232.568V136.75Z" fill="#6C89EF"/>
<path d="M252.13 136.75H237.312V151.094H252.13V136.75Z" fill="#6C89EF"/>
<path d="M213.021 155.789H198.203V170.133H213.021V155.789Z" fill="#6C89EF"/>
<path d="M232.568 155.789H217.75V170.133H232.568V155.789Z" fill="#6C89EF"/>
<path d="M252.13 155.789H237.312V170.133H252.13V155.789Z" fill="#6C89EF"/>
<path d="M213.021 174.883H198.203V189.227H213.021V174.883Z" fill="#6C89EF"/>
<path d="M232.568 174.883H217.75V189.227H232.568V174.883Z" fill="#6C89EF"/>
<path d="M252.13 174.883H237.312V189.227H252.13V174.883Z" fill="#6C89EF"/>
<path d="M213.021 193.93H198.203V208.274H213.021V193.93Z" fill="#6C89EF"/>
<path d="M232.568 193.93H217.75V208.274H232.568V193.93Z" fill="#6C89EF"/>
<path d="M252.13 193.93H237.312V208.274H252.13V193.93Z" fill="#6C89EF"/>
<path d="M213.021 213.008H198.203V227.352H213.021V213.008Z" fill="#6C89EF"/>
<path d="M232.568 213.008H217.75V227.352H232.568V213.008Z" fill="#6C89EF"/>
<path d="M252.13 213.008H237.312V227.352H252.13V213.008Z" fill="#6C89EF"/>
<path d="M173.248 121.5H94V241.651H173.248V121.5Z" stroke="#6C89EF" stroke-width="4" stroke-linecap="round" stroke-linejoin="round"/>
<path d="M121.482 136.742H106.664V151.086H121.482V136.742Z" fill="#6C89EF"/>
<path d="M141.013 136.742H126.195V151.086H141.013V136.742Z" fill="#6C89EF"/>
<path d="M160.56 136.742H145.742V151.086H160.56V136.742Z" fill="#6C89EF"/>
<path d="M121.482 155.789H106.664V170.133H121.482V155.789Z" fill="#6C89EF"/>
<path d="M141.013 155.789H126.195V170.133H141.013V155.789Z" fill="#6C89EF"/>
<path d="M160.56 155.789H145.742V170.133H160.56V155.789Z" fill="#6C89EF"/>
<path d="M121.482 174.867H106.664V189.211H121.482V174.867Z" fill="#6C89EF"/>
<path d="M141.013 174.867H126.195V189.211H141.013V174.867Z" fill="#6C89EF"/>
<path d="M160.56 174.867H145.742V189.211H160.56V174.867Z" fill="#6C89EF"/>
<path d="M121.482 193.922H106.664V208.266H121.482V193.922Z" fill="#6C89EF"/>
<path d="M141.013 193.922H126.195V208.266H141.013V193.922Z" fill="#6C89EF"/>
<path d="M160.56 193.922H145.742V208.266H160.56V193.922Z" fill="#6C89EF"/>
<path d="M121.482 213H106.664V227.344H121.482V213Z" fill="#6C89EF"/>
<path d="M141.013 213H126.195V227.344H141.013V213Z" fill="#6C89EF"/>
<path d="M160.56 213H145.742V227.344H160.56V213Z" fill="#6C89EF"/>
</g>
<defs>
<clipPath id="clip0_281_661">
<rect width="267.072" height="243.994" fill="white" transform="translate(0.0703125)"/>
</clipPath>
</defs>
</svg>
