<svg width="227" height="264" viewBox="0 0 227 264" fill="none" xmlns="http://www.w3.org/2000/svg">
<g clip-path="url(#clip0_286_743)">
<path d="M109.787 139.291C107.189 139.202 104.556 139.72 102.029 140.863C93.0964 144.919 89.1284 155.496 93.1854 164.465C96.6018 172.059 104.662 176.079 112.474 174.667" stroke="#6C89EF" stroke-width="4" stroke-linecap="round" stroke-linejoin="round"/>
<path d="M142.88 223.977C144.304 226.121 145.122 228.676 145.122 231.427C145.122 235.143 143.61 238.52 141.172 240.968C138.734 243.416 135.371 244.934 131.652 244.934H98.3246C95.6555 244.934 93.1466 244.148 91.0469 242.755" stroke="#6C89EF" stroke-width="4" stroke-linecap="round" stroke-linejoin="round"/>
<path d="M219.505 221.104C222.423 223.588 224.291 227.304 224.291 231.431C224.291 235.148 222.779 238.525 220.341 240.972C217.903 243.42 214.54 244.939 210.839 244.939H177.493C170.091 244.939 164.023 238.864 164.023 231.431C164.023 227.715 165.536 224.32 167.974 221.873C170.429 219.425 173.792 217.906 177.493 217.906" stroke="#6C89EF" stroke-width="4" stroke-linecap="round" stroke-linejoin="round"/>
<path d="M203.456 150.938L219.506 221.1L177.495 217.902L159.452 168.197L142.886 223.977L105.75 218.742" stroke="#6C89EF" stroke-width="4" stroke-linecap="round" stroke-linejoin="round"/>
<path d="M119.541 153.227C119.541 153.227 116.552 161.856 112.477 174.667C111.392 178.115 110.217 181.867 109.007 185.833C106.819 192.962 104.505 200.788 102.281 208.792" stroke="#6C89EF" stroke-width="4" stroke-linecap="round" stroke-linejoin="round"/>
<path d="M133.968 69.6641H130.712C118.968 69.6641 109.359 79.3121 109.359 91.1042V135.003C109.359 136.468 109.502 137.897 109.786 139.291C110.996 145.169 114.609 150.19 119.537 153.227C122.794 155.282 126.619 156.443 130.712 156.443H155.001" stroke="#6C89EF" stroke-width="4" stroke-linecap="round" stroke-linejoin="round"/>
<path d="M175.622 69.6641H189.163C200.907 69.6641 210.516 79.3121 210.516 91.1042V135.003C210.516 146.795 200.907 156.443 189.163 156.443H175.07" stroke="#6C89EF" stroke-width="4" stroke-linecap="round" stroke-linejoin="round"/>
<path d="M154.801 77.8993C171.704 77.8993 185.406 64.1406 185.406 47.1684C185.406 30.1962 171.704 16.4375 154.801 16.4375C137.898 16.4375 124.195 30.1962 124.195 47.1684C124.195 64.1406 137.898 77.8993 154.801 77.8993Z" stroke="#6C89EF" stroke-width="4" stroke-linecap="round" stroke-linejoin="round"/>
<path d="M166.046 53.7805C172.482 53.7805 177.701 48.541 177.701 42.0778C177.701 35.6145 172.482 30.375 166.046 30.375C159.609 30.375 154.391 35.6145 154.391 42.0778C154.391 48.541 159.609 53.7805 166.046 53.7805Z" stroke="#6C89EF" stroke-width="4" stroke-linecap="round" stroke-linejoin="round"/>
<path d="M151.654 42.0778C151.654 48.5455 146.44 53.7805 139.999 53.7805C133.557 53.7805 128.344 48.5455 128.344 42.0778C128.344 35.61 133.557 30.375 139.999 30.375C146.44 30.375 151.654 35.61 151.654 42.0778Z" stroke="#6C89EF" stroke-width="4" stroke-linecap="round" stroke-linejoin="round"/>
<path d="M163.432 46.4912C165.21 46.4912 166.652 45.0434 166.652 43.2573C166.652 41.4713 165.21 40.0234 163.432 40.0234C161.653 40.0234 160.211 41.4713 160.211 43.2573C160.211 45.0434 161.653 46.4912 163.432 46.4912Z" fill="#6C89EF"/>
<path d="M145.143 46.4912C146.921 46.4912 148.363 45.0434 148.363 43.2573C148.363 41.4713 146.921 40.0234 145.143 40.0234C143.364 40.0234 141.922 41.4713 141.922 43.2573C141.922 45.0434 143.364 46.4912 145.143 46.4912Z" fill="#6C89EF"/>
<path d="M154.718 53.7778H147.672L151.195 45.7734" stroke="#6C89EF" stroke-width="4" stroke-linecap="round" stroke-linejoin="round"/>
<path d="M147.273 60.4062C150.636 63.7831 156.099 63.7831 159.462 60.4062" stroke="#6C89EF" stroke-width="4" stroke-linecap="round" stroke-linejoin="round"/>
<path d="M160.234 55.2109L167.832 62.2683" stroke="#6C89EF" stroke-width="4" stroke-linecap="round" stroke-linejoin="round"/>
<path d="M142.262 55.2109L134.664 62.2683" stroke="#6C89EF" stroke-width="4" stroke-linecap="round" stroke-linejoin="round"/>
<path d="M184.768 53.957C186.85 56.9587 191.228 58.0485 194.484 56.4048C197.74 54.761 199.431 50.5623 198.274 47.0962C197.117 43.63 193.221 41.3431 189.626 42.0041C193.292 39.6993 195.071 34.7502 193.719 30.6051C192.366 26.46 187.989 23.5656 183.683 23.9051C184.573 20.0101 184.181 15.7578 182.188 12.3274C180.195 8.89693 176.477 6.37771 172.508 6.27051C168.54 6.16331 164.519 8.70039 163.256 12.4703C162.348 6.27051 156.209 1.33927 149.981 1.78594C143.771 2.25048 138.415 8.05719 138.433 14.3106C133.344 12.5596 127.899 10.8087 122.703 12.1844C118.344 13.3279 114.661 16.7762 113.202 21.0464C112.241 23.8336 112.241 27.0675 113.682 29.6403C115.123 32.2131 118.148 33.9641 121.031 33.4459C118.878 35.3934 116.689 37.3409 114.981 39.6993C113.273 42.0577 112.045 44.8628 112.063 47.7751C112.063 50.6874 113.486 53.6712 116.031 55.1005C118.575 56.5299 122.17 55.9581 123.807 53.564" stroke="#6C89EF" stroke-width="4" stroke-linecap="round" stroke-linejoin="round"/>
<path d="M183.863 118.438L170.18 124.673" stroke="#6C89EF" stroke-width="4" stroke-linecap="round" stroke-linejoin="round"/>
<path d="M183.883 118.44C189.523 115.867 192.032 109.203 189.47 103.539" stroke="#6C89EF" stroke-width="4" stroke-linecap="round" stroke-linejoin="round"/>
<path d="M165.04 159.568C174.847 159.568 182.798 151.585 182.798 141.737C182.798 131.89 174.847 123.906 165.04 123.906C155.232 123.906 147.281 131.89 147.281 141.737C147.281 151.585 155.232 159.568 165.04 159.568Z" stroke="#6C89EF" stroke-width="4" stroke-linecap="round" stroke-linejoin="round"/>
<path d="M180.719 150.151L197.409 142.594" stroke="#6C89EF" stroke-width="4" stroke-linecap="round" stroke-linejoin="round"/>
<path d="M20.1094 237.734V246.382C20.1094 248.454 20.9635 250.33 22.3158 251.706C23.6681 253.082 25.5543 253.922 27.6184 253.922C30.4476 253.922 32.921 252.332 34.2021 250.009" stroke="#6C89EF" stroke-width="4" stroke-linecap="round" stroke-linejoin="round"/>
<path d="M76.0113 252.722C74.8369 253.491 73.449 253.919 71.9543 253.919C69.8902 253.919 68.0041 253.08 66.6517 251.704C65.2994 250.328 64.4453 248.452 64.4453 246.38V241.984" stroke="#6C89EF" stroke-width="4" stroke-linecap="round" stroke-linejoin="round"/>
<path d="M52.7734 204.789H85.2651C89.2153 204.789 92.863 206.326 95.5677 208.827" stroke="#6C89EF" stroke-width="4" stroke-linecap="round" stroke-linejoin="round"/>
<path d="M26.6562 223.367V226.637C26.6562 228.495 26.9943 230.3 27.6171 231.961C27.7417 232.301 27.884 232.64 28.0442 232.962C29.3431 235.838 31.514 238.233 34.2009 239.841V254.652C34.2009 258.815 37.5817 262.21 41.7099 262.21C45.838 262.21 49.2189 258.815 49.2189 254.652V241.985H76.0165V254.652C76.0165 258.815 79.3973 262.21 83.5433 262.21C87.6892 262.21 91.0523 258.815 91.0523 254.652V240.841C96.6218 238.536 100.572 233.033 100.572 226.637V222.867" stroke="#6C89EF" stroke-width="4" stroke-linecap="round" stroke-linejoin="round"/>
<path d="M105.47 219.288C107.544 215.682 106.313 211.071 102.722 208.989C99.1302 206.907 94.5378 208.142 92.4642 211.748C90.3907 215.355 91.6212 219.966 95.2127 222.048C98.8042 224.13 103.397 222.894 105.47 219.288Z" stroke="#6C89EF" stroke-width="4" stroke-linecap="round" stroke-linejoin="round"/>
<path d="M43.6467 218.686C41.6538 220.08 39.3406 221.08 36.8138 221.545L32.0985 222.402L27.1518 223.296C26.9916 223.331 26.8137 223.349 26.6535 223.367C25.9062 223.492 25.1766 223.546 24.4471 223.546C23.6286 223.581 22.8278 223.546 22.0449 223.421C21.1552 223.331 20.3011 223.153 19.4648 222.92H19.447C14.2512 221.473 9.92729 217.632 7.93438 212.45C7.50732 211.432 7.20483 210.36 7.0091 209.234C6.83116 208.198 6.74219 207.18 6.74219 206.161C6.74219 203.213 7.48953 200.372 8.85966 197.871H8.87745C11.2796 193.387 15.6391 189.992 20.9951 189.009L30.6572 187.276C40.0523 185.579 49.1094 191.886 50.7998 201.319C50.8354 201.552 50.871 201.802 50.8888 202.034" stroke="#6C89EF" stroke-width="4" stroke-linecap="round" stroke-linejoin="round"/>
<path d="M45.1746 196.047C49.5696 199.191 63.3065 215.325 50.2458 220.399C40.7261 224.098 39.872 205.177 34 203.855" stroke="#6C89EF" stroke-width="4" stroke-linecap="round" stroke-linejoin="round"/>
<path d="M7.41918 212.469C11.4779 212.469 14.7681 209.165 14.7681 205.09C14.7681 201.015 11.4779 197.711 7.41918 197.711C3.36051 197.711 0.0703125 201.015 0.0703125 205.09C0.0703125 209.165 3.36051 212.469 7.41918 212.469Z" fill="#6C89EF"/>
<path d="M26.6552 209.719C28.3848 209.719 29.7869 208.311 29.7869 206.574C29.7869 204.838 28.3848 203.43 26.6552 203.43C24.9256 203.43 23.5234 204.838 23.5234 206.574C23.5234 208.311 24.9256 209.719 26.6552 209.719Z" fill="#6C89EF"/>
<path d="M21.0458 202.336C22.7754 202.336 24.1775 200.928 24.1775 199.191C24.1775 197.455 22.7754 196.047 21.0458 196.047C19.3162 196.047 17.9141 197.455 17.9141 199.191C17.9141 200.928 19.3162 202.336 21.0458 202.336Z" fill="#6C89EF"/>
<path d="M27.6328 231.982C27.6328 231.982 41.2807 228.122 46.174 220.547" stroke="#6C89EF" stroke-width="4" stroke-linecap="round" stroke-linejoin="round"/>
<path d="M24.4453 223.547C24.5699 223.6 24.6944 223.654 24.8012 223.726C25.5307 224.136 26.1535 224.672 26.6518 225.262" stroke="#6C89EF" stroke-width="4" stroke-linecap="round" stroke-linejoin="round"/>
<path d="M19.4692 222.922H19.4514C17.4585 223.351 15.6435 224.583 14.5403 226.495C12.4762 230.086 13.704 234.714 17.2984 236.787C18.1881 237.305 19.1489 237.608 20.1098 237.733C20.4123 237.769 20.7326 237.787 21.0351 237.787C23.633 237.787 26.1597 236.447 27.5476 234.035C27.7434 233.696 27.9213 233.338 28.0459 232.963" stroke="#6C89EF" stroke-width="4" stroke-linecap="round" stroke-linejoin="round"/>
<path d="M41.3203 225.461C44.5232 225.336 50.1283 226.265 57.3348 225.461C70.5734 223.978 74.5237 214.062 79.7373 206.112C84.9509 198.161 86.6235 187.512 82.4242 178.972C78.2248 170.432 67.5307 165.179 58.6693 168.573C56.107 169.556 53.6693 171.361 52.8152 173.969C51.7297 177.346 53.6159 181.027 56.1782 183.474C60.3064 187.387 66.036 189.138 71.6411 189.996C86.7303 192.301 102.3 189.102 116.304 183.01C130.325 176.935 142.959 168.073 155.041 158.711" stroke="#6C89EF" stroke-width="4" stroke-linecap="round" stroke-linejoin="round"/>
</g>
<defs>
<clipPath id="clip0_286_743">
<rect width="226" height="264" fill="white" transform="translate(0.0703125)"/>
</clipPath>
</defs>
</svg>
