<svg width="317" height="236" viewBox="0 0 317 236" fill="none" xmlns="http://www.w3.org/2000/svg">
<g clip-path="url(#clip0_286_561)">
<path d="M73.7599 71.1953H32.7928C16.6216 71.1953 3.39062 84.4248 3.39062 100.594V204.152C3.39062 220.321 16.6216 233.551 32.7928 233.551H183.553C199.724 233.551 212.955 220.321 212.955 204.152V100.594C212.955 84.4248 199.724 71.1953 183.553 71.1953H142.61" stroke="#E60028" stroke-width="4" stroke-linecap="round" stroke-linejoin="round"/>
<path d="M54.0312 71.1953L70.668 96.0864C75.2253 102.946 84.585 104.808 91.421 100.227L95.4148 97.5564L108.18 89.0307" stroke="#E60028" stroke-width="4" stroke-linecap="round" stroke-linejoin="round"/>
<path d="M108.18 89.0307L124.914 100.227C131.775 104.808 141.11 102.946 145.692 96.0864L162.329 71.1953" stroke="#E60028" stroke-width="4" stroke-linecap="round" stroke-linejoin="round"/>
<path d="M145.696 96.1094L108.184 152.384L70.6719 96.1094" stroke="#E60028" stroke-width="4" stroke-linecap="round" stroke-linejoin="round"/>
<path d="M95.4141 97.5781L102.642 112.792H108.032" stroke="#E60028" stroke-width="4" stroke-linecap="round" stroke-linejoin="round"/>
<path d="M120.65 97.5781L113.422 112.792H108.031" stroke="#E60028" stroke-width="4" stroke-linecap="round" stroke-linejoin="round"/>
<path d="M102.643 112.797L93.0625 129.701" stroke="#E60028" stroke-width="4" stroke-linecap="round" stroke-linejoin="round"/>
<path d="M113.422 112.797L123.002 129.701" stroke="#E60028" stroke-width="4" stroke-linecap="round" stroke-linejoin="round"/>
<path d="M140.156 233.552V233.062" stroke="#E60028" stroke-width="4" stroke-miterlimit="10"/>
<path d="M117.937 180.758H72.8047" stroke="#E60028" stroke-width="4" stroke-linecap="round" stroke-linejoin="round"/>
<path d="M72.802 180.753C61.0166 180.753 51.4609 171.198 51.4609 159.414" stroke="#E60028" stroke-width="4" stroke-linecap="round" stroke-linejoin="round"/>
<path d="M211.508 210.177H212.316C286.434 210.569 305.619 110.661 309.172 99.3672" stroke="#E60028" stroke-width="4" stroke-linecap="round" stroke-linejoin="round"/>
<path d="M288.586 48.3359C303.434 51.8883 314.484 65.2403 314.484 81.2138C314.484 87.902 312.549 94.1248 309.168 99.3676C309.168 99.3921 309.168 99.4166 309.168 99.4411C303.165 108.8 292.653 115.023 280.672 115.023C268.69 115.023 257.787 108.555 251.833 98.8776C248.673 93.7328 246.859 87.6815 246.859 81.2138C246.859 81.0423 246.859 80.8708 246.884 80.6993C246.884 79.6213 246.957 78.5433 247.055 77.5144" stroke="#E60028" stroke-width="4" stroke-linecap="round" stroke-linejoin="round"/>
<path d="M145.914 233.547C164.588 233.547 179.727 218.411 179.727 199.738C179.727 181.066 164.588 165.93 145.914 165.93C127.24 165.93 112.102 181.066 112.102 199.738C112.102 218.411 127.24 233.547 145.914 233.547Z" stroke="#E60028" stroke-width="4" stroke-linecap="round" stroke-linejoin="round"/>
<path d="M68.0703 33.9282C68.0703 33.9282 92.3026 40.494 108.033 19.7188C108.033 19.7188 126.36 29.9594 144.737 25.5005" stroke="#E60028" stroke-width="4" stroke-linecap="round" stroke-linejoin="round"/>
<path d="M142.264 25.9963C147.091 25.1389 151.869 23.8159 153.364 19.1611C154.858 14.4818 152.261 9.50843 147.606 8.01399C145.327 7.27901 142.975 7.5485 140.966 8.52847C140.084 5.98056 138.074 3.82464 135.281 2.94267C130.601 1.44822 125.897 3.31016 124.402 7.98949C119.404 5.90706 113.94 4.75561 108.182 4.75561C89.4383 4.75561 73.5366 17.0052 68.0727 33.9341C66.7496 38.0254 66.0391 42.3617 66.0391 46.8941C66.0391 55.9588 68.9058 64.3375 73.7571 71.1972C81.3772 82.0013 93.9711 89.0326 108.182 89.0326C122.393 89.0326 134.987 82.0013 142.607 71.1972C147.459 64.3375 150.325 55.9588 150.325 46.8941C150.325 39.1034 148.194 31.7781 144.494 25.5309C144.494 25.5064 144.469 25.4574 144.445 25.4329" stroke="#E60028" stroke-width="4" stroke-linecap="round" stroke-linejoin="round"/>
<path d="M98.9192 46.9156C101.368 46.9156 103.354 44.9302 103.354 42.4812C103.354 40.0322 101.368 38.0469 98.9192 38.0469C96.4699 38.0469 94.4844 40.0322 94.4844 42.4812C94.4844 44.9302 96.4699 46.9156 98.9192 46.9156Z" fill="#E60028"/>
<path d="M124.13 46.9156C126.579 46.9156 128.565 44.9302 128.565 42.4812C128.565 40.0322 126.579 38.0469 124.13 38.0469C121.681 38.0469 119.695 40.0322 119.695 42.4812C119.695 44.9302 121.681 46.9156 124.13 46.9156Z" fill="#E60028"/>
<path d="M110.93 56.8886H120.657L115.806 45.9375" stroke="#E60028" stroke-width="4" stroke-linecap="round" stroke-linejoin="round"/>
<path d="M104.406 70.9024C109.037 66.2721 116.559 66.2721 121.19 70.9024" stroke="#E60028" stroke-width="4" stroke-linecap="round" stroke-linejoin="round"/>
<path d="M260.236 78.0317C258.987 78.5707 257.713 79.0117 256.365 79.4037C238.405 84.524 219.686 74.1364 214.565 56.1785C209.42 38.1962 219.833 19.4788 237.768 14.3585C239.116 13.9665 240.439 13.6726 241.762 13.4766" stroke="#E60028" stroke-width="4" stroke-miterlimit="10"/>
<path d="M254.945 78.4222C273.619 78.4222 288.758 63.2855 288.758 44.6135C288.758 25.9414 273.619 10.8047 254.945 10.8047C236.271 10.8047 221.133 25.9414 221.133 44.6135C221.133 63.2855 236.271 78.4222 254.945 78.4222Z" stroke="#E60028" stroke-width="4" stroke-miterlimit="10"/>
<path d="M235.93 44.1744L264.499 37.2656" stroke="#E60028" stroke-width="4" stroke-linecap="round" stroke-linejoin="round"/>
<path d="M238.234 53.7016L259.673 48.5078" stroke="#E60028" stroke-width="4" stroke-linecap="round" stroke-linejoin="round"/>
<path d="M269.348 26.0198C265.207 23.7658 260.381 23.1289 255.823 24.2558C245.459 26.9017 239.211 37.4364 241.857 47.7995C244.405 58.2851 254.794 64.8264 265.036 62.352C269.789 61.2005 273.612 58.2606 276.258 54.5857" stroke="#E60028" stroke-width="4" stroke-linecap="round" stroke-linejoin="round"/>
<path d="M240.93 122.884L251.809 98.875" stroke="#E60028" stroke-width="4" stroke-linecap="round" stroke-linejoin="round"/>
<path d="M240.93 122.883C236.054 133.613 223.411 138.391 212.68 133.515" stroke="#E60028" stroke-width="4" stroke-linecap="round" stroke-linejoin="round"/>
</g>
<defs>
<clipPath id="clip0_286_561">
<rect width="316" height="236" fill="white" transform="translate(0.9375)"/>
</clipPath>
</defs>
</svg>
