<svg width="260" height="230" viewBox="0 0 260 230" fill="none" xmlns="http://www.w3.org/2000/svg">
<g clip-path="url(#clip0_286_238)">
<path d="M224.974 74.9297H35.8984V227.073H224.974V74.9297Z" stroke="#6C89EF" stroke-width="4" stroke-linecap="round" stroke-linejoin="round"/>
<path d="M160.987 191.614C160.987 174.732 147.306 161.039 130.439 161.039C113.571 161.039 99.8906 174.732 99.8906 191.614V227.075H160.987V191.614Z" stroke="#6C89EF" stroke-width="4" stroke-linecap="round" stroke-linejoin="round"/>
<path d="M103.395 157.674H52.9688V107.203H78.1672H103.395V157.674Z" stroke="#6C89EF" stroke-width="4" stroke-linecap="round" stroke-linejoin="round"/>
<path d="M78.1641 157.674V107.203" stroke="#6C89EF" stroke-width="4" stroke-linecap="round" stroke-linejoin="round"/>
<path d="M52.9688 132.453H103.395" stroke="#6C89EF" stroke-width="4" stroke-linecap="round" stroke-linejoin="round"/>
<path d="M157.477 157.674H207.903V107.203H182.704H157.477V157.674Z" stroke="#6C89EF" stroke-width="4" stroke-linecap="round" stroke-linejoin="round"/>
<path d="M182.703 157.674V107.203" stroke="#6C89EF" stroke-width="4" stroke-linecap="round" stroke-linejoin="round"/>
<path d="M207.903 132.453H157.477" stroke="#6C89EF" stroke-width="4" stroke-linecap="round" stroke-linejoin="round"/>
<path d="M130.436 2.92969L3.85938 74.9345H257.013L130.436 2.92969Z" stroke="#6C89EF" stroke-width="4" stroke-linecap="round" stroke-linejoin="round"/>
<path d="M115.152 204.806C118.123 204.806 120.531 202.396 120.531 199.423C120.531 196.449 118.123 194.039 115.152 194.039C112.182 194.039 109.773 196.449 109.773 199.423C109.773 202.396 112.182 204.806 115.152 204.806Z" stroke="#6C89EF" stroke-width="4" stroke-linecap="round" stroke-linejoin="round"/>
</g>
<defs>
<clipPath id="clip0_286_238">
<rect width="259" height="230" fill="white" transform="translate(0.9375)"/>
</clipPath>
</defs>
</svg>
