<svg width="298" height="351" viewBox="0 0 298 351" fill="none" xmlns="http://www.w3.org/2000/svg">
<path d="M196.859 121.016H224.266H240.438" stroke="black" stroke-width="4" stroke-linecap="round" stroke-linejoin="round"/>
<path d="M269.914 124.386C284.418 130.685 294.597 145.154 294.597 161.87V305.78C294.597 328.25 276.213 346.635 253.743 346.635H44.2608C21.7908 346.635 3.40625 328.25 3.40625 305.78V161.87C3.40625 139.4 21.7908 121.016 44.2608 121.016H101.185" stroke="black" stroke-width="4" stroke-linecap="round" stroke-linejoin="round"/>
<path d="M73.7812 121.07L96.8981 155.661C103.231 165.193 116.236 167.781 125.735 161.414L131.284 157.703L149.022 145.855" stroke="black" stroke-width="4" stroke-linecap="round" stroke-linejoin="round"/>
<path d="M224.261 121.016L203.289 152.406" stroke="black" stroke-width="4" stroke-linecap="round" stroke-linejoin="round"/>
<path d="M168.361 158.742L149.023 145.805" stroke="black" stroke-width="4" stroke-linecap="round" stroke-linejoin="round"/>
<path d="M96.8906 155.641L128.008 202.317L149.014 233.843L154.87 225.025" stroke="black" stroke-width="4" stroke-linecap="round" stroke-linejoin="round"/>
<path d="M131.289 157.695L141.332 178.838H148.822" stroke="black" stroke-width="4" stroke-linecap="round" stroke-linejoin="round"/>
<path d="M150.837 178.836H148.828" stroke="black" stroke-width="4" stroke-linecap="round" stroke-linejoin="round"/>
<path d="M166.356 157.695L164.586 161.44" stroke="black" stroke-width="4" stroke-linecap="round" stroke-linejoin="round"/>
<path d="M141.327 178.836L128.016 202.361" stroke="black" stroke-width="4" stroke-linecap="round" stroke-linejoin="round"/>
<path d="M193.445 346.689V346.008" stroke="black" stroke-width="4" stroke-miterlimit="10"/>
<path d="M162.563 273.312H99.8516" stroke="black" stroke-width="4" stroke-linecap="round" stroke-linejoin="round"/>
<path d="M99.9036 273.279C83.5277 273.279 70.25 260.001 70.25 243.625" stroke="black" stroke-width="4" stroke-linecap="round" stroke-linejoin="round"/>
<path d="M201.491 346.645C227.438 346.645 248.473 325.61 248.473 299.662C248.473 273.715 227.438 252.68 201.491 252.68C175.543 252.68 154.508 273.715 154.508 299.662C154.508 325.61 175.543 346.645 201.491 346.645Z" stroke="black" stroke-width="4" stroke-linecap="round" stroke-linejoin="round"/>
<path d="M93.2734 69.2464C93.2734 69.2464 126.944 78.3706 148.802 49.5C148.802 49.5 174.268 63.731 199.802 57.5347" stroke="black" stroke-width="4" stroke-linecap="round" stroke-linejoin="round"/>
<path d="M196.369 58.2154C203.076 57.0238 209.714 55.1853 211.791 48.7167C213.868 42.214 210.259 35.3028 203.791 33.226C200.624 32.2046 197.356 32.5791 194.564 33.9409C193.339 30.4002 190.547 27.4042 186.666 26.1786C180.163 24.1018 173.626 26.6893 171.549 33.1919C164.604 30.2981 157.012 28.6979 149.011 28.6979C122.967 28.6979 100.871 45.7207 93.2789 69.2461C91.4404 74.9317 90.4531 80.9577 90.4531 87.2561C90.4531 99.853 94.4364 111.497 101.177 121.029C111.766 136.043 129.265 145.814 149.011 145.814C168.758 145.814 186.257 136.043 196.845 121.029C203.586 111.497 207.57 99.853 207.57 87.2561C207.57 76.4297 204.608 66.2501 199.467 57.5685C199.467 57.5345 199.433 57.4664 199.399 57.4323" stroke="black" stroke-width="4" stroke-linecap="round" stroke-linejoin="round"/>
<path d="M140.309 81.1388C140.309 83.4375 138.445 85.301 136.147 85.301C133.848 85.301 131.984 83.4375 131.984 81.1388C131.984 78.8401 133.848 76.9766 136.147 76.9766C138.445 76.9766 140.309 78.8401 140.309 81.1388Z" fill="black" stroke="black" stroke-width="4"/>
<path d="M175.34 81.1388C175.34 83.4375 173.477 85.301 171.178 85.301C168.879 85.301 167.016 83.4375 167.016 81.1388C167.016 78.8401 168.879 76.9766 171.178 76.9766C173.477 76.9766 175.34 78.8401 175.34 81.1388Z" fill="black" stroke="black" stroke-width="4"/>
<path d="M152.867 101.156H166.349L159.608 85.9375" stroke="black" stroke-width="4" stroke-linecap="round" stroke-linejoin="round"/>
<path d="M174.453 113.648C174.453 122.977 166.895 130.535 157.566 130.535C148.238 130.535 140.68 122.977 140.68 113.648H174.453Z" stroke="black" stroke-width="4" stroke-linecap="round" stroke-linejoin="round"/>
<path d="M254.918 248.159L238.508 211.969" stroke="black" stroke-width="4" stroke-miterlimit="10"/>
<path d="M254.898 248.195C261.673 263.107 279.241 269.746 294.153 262.971" stroke="black" stroke-width="4" stroke-miterlimit="10"/>
<path d="M193.545 245.372C219.493 245.372 240.528 224.337 240.528 198.389C240.528 172.441 219.493 151.406 193.545 151.406C167.597 151.406 146.562 172.441 146.562 198.389C146.562 224.337 167.597 245.372 193.545 245.372Z" stroke="black" stroke-width="4" stroke-miterlimit="10"/>
<path d="M179.622 258.071L171.383 239.823V239.789" stroke="black" stroke-width="4" stroke-miterlimit="10"/>
<path d="M80.4079 70.5711C80.4079 77.1419 60.3211 75.8482 55.9973 80.1379C51.6735 84.4276 52.9672 104.549 46.4305 104.549C39.8938 104.549 41.1535 84.4617 36.8637 80.1379C32.574 75.8141 12.4531 77.1079 12.4531 70.5711C12.4531 64.0344 32.54 65.2941 36.8637 61.0044C41.1875 56.7146 39.8938 36.5938 46.4305 36.5938C52.9672 36.5938 51.7076 56.6806 55.9973 61.0044C60.287 65.3281 80.4079 64.0344 80.4079 70.5711Z" stroke="black" stroke-width="4" stroke-miterlimit="10"/>
<path d="M268.196 29.1368C268.196 34.1075 252.977 33.1542 249.709 36.3885C246.44 39.6228 247.428 54.8752 242.457 54.8752C237.486 54.8752 238.44 39.6569 235.205 36.3885C231.971 33.1201 216.719 34.1075 216.719 29.1368C216.719 24.1662 231.937 25.1194 235.205 21.8851C238.474 18.6508 237.486 3.39844 242.457 3.39844C247.428 3.39844 246.474 18.6168 249.709 21.8851C252.943 25.1535 268.196 24.1662 268.196 29.1368Z" stroke="black" stroke-width="4" stroke-miterlimit="10"/>
<path d="M39.8056 170.861C45.014 170.861 49.2362 166.639 49.2362 161.431C49.2362 156.222 45.014 152 39.8056 152C34.5972 152 30.375 156.222 30.375 161.431C30.375 166.639 34.5972 170.861 39.8056 170.861Z" stroke="black" stroke-width="4" stroke-miterlimit="10"/>
<path d="M254.928 139.848C263.22 139.848 269.942 133.126 269.942 124.834C269.942 116.542 263.22 109.82 254.928 109.82C246.636 109.82 239.914 116.542 239.914 124.834C239.914 133.126 246.636 139.848 254.928 139.848Z" stroke="black" stroke-width="4" stroke-miterlimit="10"/>
<path d="M73.7743 40.1112C78.9827 40.1112 83.2049 35.889 83.2049 30.6806C83.2049 25.4722 78.9827 21.25 73.7743 21.25C68.566 21.25 64.3438 25.4722 64.3438 30.6806C64.3438 35.889 68.566 40.1112 73.7743 40.1112Z" stroke="black" stroke-width="4" stroke-miterlimit="10"/>
</svg>
